# xmcd CD database file
#
# Track frame offsets:
#	150
#	19539
#	36666
#	52943
#	71108
#	90046
#
# Disc length: 1463 seconds
#
# Revision: 0
# Processed by: cddbd v1.5.2PL0 Copyright (c) Steve Scherf et al.
# Submitted via: CDex 1.60beta1-cs1
#
DISCID=4205b506
DTITLE=Elmo Hope - Elmo Hope Quintet vol 2
DYEAR=1900
DGENRE=Jazz
TTITLE0=Crazy
TTITLE1=Abdullah
TTITLE2=Chips
TTITLE3=Later for You
TTITLE4=Low tide
TTITLE5=Maybe so
EXTD=
EXTT0=
EXTT1=
EXTT2=
EXTT3=
EXTT4=
EXTT5=
PLAYORDER=
